<svg width="1296" height="799" viewBox="0 0 1296 799" fill="none" xmlns="http://www.w3.org/2000/svg">
<rect width="1296" height="799" fill="#082036"/>
<path d="M43.9135 391.336C25.6441 391.336 10.8379 376.563 10.8379 358.335C10.8379 340.107 25.6441 325.335 43.9135 325.335C46.9968 325.335 49.9806 325.754 52.8108 326.544C60.2523 312.727 74.8687 303.336 91.6868 303.336C113.605 303.336 131.783 319.286 135.206 340.189C147.955 341.713 157.833 352.544 157.833 365.67C157.833 379.847 146.314 391.336 132.109 391.336H43.9135Z" fill="url(#paint0_linear_1_253)"/>
<path d="M68.858 431.336L69.986 427.904H75.962L77.09 431.336H80.042L74.282 414.776H71.642L65.882 431.336H68.858ZM72.962 418.808L75.17 425.504H70.754L72.962 418.808ZM88.2914 425.288C92.1314 425.288 94.3874 423.368 94.3874 420.008C94.3874 416.6 92.1074 414.776 88.2914 414.776H82.6514V431.336H85.4354V425.288H88.2914ZM85.4354 422.888V417.2H88.0034C90.5474 417.2 91.6034 418.208 91.6034 420.008C91.6034 421.904 90.5474 422.888 88.0034 422.888H85.4354ZM100.528 414.776H97.7442V431.336H100.528V414.776Z" fill="white"/>
<path d="M736.034 343.557L736.786 341.269H740.77L741.522 343.557H743.49L739.65 332.517H737.89L734.05 343.557H736.034ZM738.77 335.205L740.242 339.669H737.298L738.77 335.205ZM748.989 339.525C751.549 339.525 753.053 338.245 753.053 336.005C753.053 333.733 751.533 332.517 748.989 332.517H745.229V343.557H747.085V339.525H748.989ZM747.085 337.925V334.133H748.797C750.493 334.133 751.197 334.805 751.197 336.005C751.197 337.269 750.493 337.925 748.797 337.925H747.085ZM757.147 332.517H755.291V343.557H757.147V332.517Z" fill="white"/>
<path d="M1054.83 317.439C1054.83 318.175 1055.44 318.783 1056.18 318.783C1056.91 318.783 1057.52 318.175 1057.52 317.439C1057.52 316.703 1056.91 316.095 1056.18 316.095C1055.44 316.095 1054.83 316.703 1054.83 317.439ZM1069.62 311.855V322.895H1076.11V322.031H1070.55V317.615H1075.63V316.751H1070.55V312.719H1076.11V311.855H1069.62ZM1083.46 321.199C1083.01 321.903 1082.26 322.175 1081.44 322.175C1079.68 322.175 1078.95 321.039 1078.95 319.455V318.303C1078.95 316.575 1079.86 315.615 1081.44 315.615C1082.24 315.615 1082.99 315.903 1083.44 316.511L1084.15 316.031C1083.55 315.215 1082.61 314.799 1081.44 314.799C1079.33 314.799 1078.07 316.031 1078.07 318.303V319.455C1078.07 321.711 1079.3 322.991 1081.44 322.991C1082.69 322.991 1083.63 322.543 1084.16 321.695L1083.46 321.199ZM1092.13 319.471V318.303C1092.13 316.031 1090.93 314.799 1088.89 314.799C1086.84 314.799 1085.64 316.031 1085.64 318.303V319.471C1085.64 321.711 1086.82 322.991 1088.89 322.991C1091.03 322.991 1092.13 321.647 1092.13 319.471ZM1091.25 319.471C1091.25 321.151 1090.44 322.175 1088.89 322.175C1087.27 322.175 1086.52 321.151 1086.52 319.471V318.303C1086.52 316.559 1087.35 315.615 1088.89 315.615C1090.41 315.615 1091.25 316.559 1091.25 318.303V319.471ZM1094.46 322.895H1095.34V318.095C1095.34 316.623 1096.04 315.631 1097.35 315.631C1098.5 315.631 1099.27 316.431 1099.27 318.175V322.895H1100.15V317.983C1100.15 316.575 1100.89 315.631 1102.17 315.631C1103.32 315.631 1104.09 316.431 1104.09 318.175V322.895H1104.97V318.159C1104.97 315.983 1103.94 314.799 1102.26 314.799C1101.16 314.799 1100.28 315.359 1099.83 316.367C1099.42 315.343 1098.58 314.799 1097.45 314.799C1096.39 314.799 1095.67 315.247 1095.34 315.983V314.895H1094.46V322.895ZM1107.69 322.895H1108.57V318.095C1108.57 316.623 1109.27 315.631 1110.58 315.631C1111.73 315.631 1112.5 316.431 1112.5 318.175V322.895H1113.38V317.983C1113.38 316.575 1114.12 315.631 1115.4 315.631C1116.55 315.631 1117.32 316.431 1117.32 318.175V322.895H1118.2V318.159C1118.2 315.983 1117.17 314.799 1115.49 314.799C1114.39 314.799 1113.51 315.359 1113.06 316.367C1112.65 315.343 1111.81 314.799 1110.68 314.799C1109.62 314.799 1108.9 315.247 1108.57 315.983V314.895H1107.69V322.895ZM1126.69 319.119V318.303C1126.69 316.031 1125.6 314.799 1123.6 314.799C1121.6 314.799 1120.52 316.031 1120.52 318.303V319.455C1120.52 321.679 1121.75 322.991 1123.88 322.991C1125.17 322.991 1126.05 322.575 1126.61 321.695L1125.91 321.199C1125.46 321.887 1124.8 322.175 1123.83 322.175C1122.13 322.175 1121.4 321.039 1121.4 319.455V319.119H1126.69ZM1121.4 318.303C1121.4 316.575 1122.15 315.615 1123.6 315.615C1125.06 315.615 1125.81 316.559 1125.81 318.303V318.319H1121.4V318.303ZM1131.96 315.631C1132.67 315.631 1133.15 315.903 1133.56 316.447L1134.3 315.903C1133.77 315.199 1133.08 314.799 1132.04 314.799C1131.03 314.799 1130.36 315.247 1130.03 315.983V314.895H1129.15V322.895H1130.03V318.079C1130.03 316.623 1130.71 315.631 1131.96 315.631ZM1140.74 321.199C1140.3 321.903 1139.54 322.175 1138.73 322.175C1136.97 322.175 1136.23 321.039 1136.23 319.455V318.303C1136.23 316.575 1137.14 315.615 1138.73 315.615C1139.53 315.615 1140.28 315.903 1140.73 316.511L1141.43 316.031C1140.84 315.215 1139.9 314.799 1138.73 314.799C1136.62 314.799 1135.35 316.031 1135.35 318.303V319.455C1135.35 321.711 1136.58 322.991 1138.73 322.991C1139.98 322.991 1140.92 322.543 1141.45 321.695L1140.74 321.199ZM1149.1 319.119V318.303C1149.1 316.031 1148.01 314.799 1146.01 314.799C1144.01 314.799 1142.93 316.031 1142.93 318.303V319.455C1142.93 321.679 1144.16 322.991 1146.29 322.991C1147.58 322.991 1148.46 322.575 1149.02 321.695L1148.32 321.199C1147.87 321.887 1147.21 322.175 1146.24 322.175C1144.54 322.175 1143.81 321.039 1143.81 319.455V319.119H1149.1ZM1143.81 318.303C1143.81 316.575 1144.56 315.615 1146.01 315.615C1147.47 315.615 1148.22 316.559 1148.22 318.303V318.319H1143.81V318.303ZM1162.45 318.303C1162.45 316.031 1161.32 314.799 1159.33 314.799C1158.12 314.799 1157.36 315.183 1156.92 315.903V314.895H1156.04V325.935H1156.92V321.951C1157.36 322.655 1158.12 322.991 1159.33 322.991C1161.41 322.991 1162.45 321.647 1162.45 319.455V318.303ZM1159.27 322.175C1157.51 322.175 1156.93 321.103 1156.92 319.599V318.207C1156.92 316.639 1157.57 315.615 1159.27 315.615C1160.79 315.615 1161.57 316.559 1161.57 318.303V319.455C1161.57 321.135 1160.8 322.175 1159.27 322.175ZM1164.77 320.463C1164.77 322.127 1165.33 322.927 1167.17 322.927V322.095C1165.77 322.095 1165.65 321.359 1165.65 320.239V311.855H1164.77V320.463ZM1169.13 320.607C1169.13 322.143 1170.13 322.991 1171.91 322.991C1172.93 322.991 1173.73 322.751 1174.18 321.903V322.895H1175.06V317.359C1175.06 315.407 1174.13 314.799 1172.18 314.799C1170.76 314.799 1169.96 315.135 1169.4 316.079L1170.07 316.543C1170.58 315.695 1171.21 315.631 1172.17 315.631C1173.64 315.631 1174.18 315.999 1174.18 317.359V318.351H1171.85C1170.2 318.351 1169.13 319.071 1169.13 320.607ZM1174.18 319.919C1174.18 321.711 1173.21 322.159 1171.91 322.159C1170.79 322.159 1170.01 321.743 1170.01 320.623C1170.01 319.775 1170.47 319.135 1171.85 319.135H1174.18V319.919ZM1177.08 315.711H1178.11V320.431C1178.11 322.095 1178.62 322.895 1180.4 322.895H1180.96V322.047H1180.43C1179.13 322.047 1178.99 321.471 1178.99 320.191V315.711H1180.96V314.895H1178.99V313.135H1178.11V314.895H1177.08V315.711ZM1182.49 314.895V315.711H1183.51V322.895H1184.39V315.711H1186.15V314.895H1184.39V314.543C1184.39 313.311 1184.52 312.703 1185.8 312.703H1186.15V311.855H1185.78C1184.02 311.855 1183.51 312.639 1183.51 314.319V314.895H1182.49ZM1194.17 319.471V318.303C1194.17 316.031 1192.97 314.799 1190.92 314.799C1188.88 314.799 1187.68 316.031 1187.68 318.303V319.471C1187.68 321.711 1188.86 322.991 1190.92 322.991C1193.07 322.991 1194.17 321.647 1194.17 319.471ZM1193.29 319.471C1193.29 321.151 1192.48 322.175 1190.92 322.175C1189.31 322.175 1188.56 321.151 1188.56 319.471V318.303C1188.56 316.559 1189.39 315.615 1190.92 315.615C1192.44 315.615 1193.29 316.559 1193.29 318.303V319.471ZM1199.31 315.631C1200.01 315.631 1200.49 315.903 1200.91 316.447L1201.65 315.903C1201.12 315.199 1200.43 314.799 1199.39 314.799C1198.38 314.799 1197.71 315.247 1197.37 315.983V314.895H1196.49V322.895H1197.37V318.079C1197.37 316.623 1198.06 315.631 1199.31 315.631ZM1203.16 322.895H1204.04V318.095C1204.04 316.623 1204.74 315.631 1206.06 315.631C1207.21 315.631 1207.98 316.431 1207.98 318.175V322.895H1208.86V317.983C1208.86 316.575 1209.59 315.631 1210.87 315.631C1212.02 315.631 1212.79 316.431 1212.79 318.175V322.895H1213.67V318.159C1213.67 315.983 1212.65 314.799 1210.97 314.799C1209.86 314.799 1208.98 315.359 1208.54 316.367C1208.12 315.343 1207.29 314.799 1206.15 314.799C1205.1 314.799 1204.38 315.247 1204.04 315.983V314.895H1203.16V322.895ZM1224.09 324.047C1222.17 322.591 1221.83 321.727 1221.83 319.999V314.655C1221.83 312.927 1222.17 312.079 1224.09 310.607L1223.54 309.903C1221.35 311.551 1220.95 312.575 1220.95 314.351V320.303C1220.95 322.079 1221.35 323.103 1223.54 324.751L1224.09 324.047ZM1233.14 313.567C1232.37 312.351 1231.28 311.759 1229.57 311.759C1227.09 311.759 1226.08 313.055 1226.08 314.607C1226.08 316.575 1227.49 317.375 1229.56 317.775C1231.64 318.175 1232.4 318.815 1232.4 320.143C1232.4 321.215 1231.67 322.127 1229.7 322.127C1228.05 322.127 1227.28 321.519 1226.6 320.655L1225.84 321.183C1226.66 322.383 1227.94 322.991 1229.7 322.991C1232.34 322.991 1233.33 321.519 1233.33 320.111C1233.33 318.031 1231.96 317.391 1229.88 316.943C1228.28 316.591 1227.01 316.191 1227.01 314.607C1227.01 313.247 1228.02 312.623 1229.54 312.623C1231.06 312.623 1231.83 313.247 1232.4 314.095L1233.14 313.567ZM1235.75 322.895H1236.63V318.095C1236.63 316.623 1237.38 315.631 1238.89 315.631C1240.14 315.631 1241.05 316.351 1241.05 318.175V322.895H1241.93V318.159C1241.93 315.903 1240.76 314.799 1238.98 314.799C1237.8 314.799 1237.06 315.215 1236.63 315.983V311.855H1235.75V322.895ZM1250.75 319.471V318.303C1250.75 316.031 1249.55 314.799 1247.5 314.799C1245.45 314.799 1244.25 316.031 1244.25 318.303V319.471C1244.25 321.711 1245.44 322.991 1247.5 322.991C1249.65 322.991 1250.75 321.647 1250.75 319.471ZM1249.87 319.471C1249.87 321.151 1249.05 322.175 1247.5 322.175C1245.89 322.175 1245.13 321.151 1245.13 319.471V318.303C1245.13 316.559 1245.97 315.615 1247.5 315.615C1249.02 315.615 1249.87 316.559 1249.87 318.303V319.471ZM1259.49 318.303C1259.49 316.031 1258.35 314.799 1256.37 314.799C1255.15 314.799 1254.4 315.183 1253.95 315.903V314.895H1253.07V325.935H1253.95V321.951C1254.4 322.655 1255.15 322.991 1256.37 322.991C1258.45 322.991 1259.49 321.647 1259.49 319.455V318.303ZM1256.3 322.175C1254.54 322.175 1253.97 321.103 1253.95 319.599V318.207C1253.95 316.639 1254.61 315.615 1256.3 315.615C1257.82 315.615 1258.61 316.559 1258.61 318.303V319.455C1258.61 321.135 1257.84 322.175 1256.3 322.175ZM1262.04 322.895H1262.92V314.895H1262.04V322.895ZM1261.95 312.927H1263.02V311.855H1261.95V312.927ZM1265.17 314.895V315.711H1266.2V322.895H1267.08V315.711H1268.84V314.895H1267.08V314.543C1267.08 313.311 1267.2 312.703 1268.48 312.703H1268.84V311.855H1268.47C1266.71 311.855 1266.2 312.639 1266.2 314.319V314.895H1265.17ZM1270.97 325.935C1272.87 325.935 1273.38 325.135 1274.04 323.215L1276.93 314.895H1276.01L1273.64 321.743L1270.87 314.895H1269.91L1273.19 323.023L1273.16 323.119C1272.61 324.655 1272.21 325.071 1270.97 325.071V325.935ZM1279.27 321.647H1278.18V324.879L1279.27 323.935V321.647ZM1069.62 335.855V346.895H1073.27C1076.02 346.895 1076.99 345.327 1076.99 343.823C1076.99 342.367 1076.13 341.439 1074.74 341.135C1075.81 340.879 1076.64 339.887 1076.64 338.655C1076.64 336.831 1075.41 335.855 1072.88 335.855H1069.62ZM1070.55 341.599H1072.96C1075.06 341.599 1076.07 342.335 1076.07 343.823C1076.07 345.119 1075.17 346.031 1073.27 346.031H1070.55V341.599ZM1070.55 336.719H1072.88C1075.14 336.719 1075.71 337.535 1075.71 338.655C1075.71 339.791 1074.96 340.735 1073.17 340.735H1070.55V336.719ZM1079.55 346.895H1080.43V338.895H1079.55V346.895ZM1079.45 336.927H1080.52V335.855H1079.45V336.927ZM1082.98 343.455C1082.98 345.647 1084.02 346.991 1086.1 346.991C1087.3 346.991 1088.07 346.655 1088.52 345.919V346.575C1088.52 348.159 1087.8 349.215 1086.18 349.215C1085.25 349.215 1084.6 348.927 1084.17 348.239L1083.48 348.735C1084.01 349.615 1084.85 350.031 1086.13 350.031C1088.2 350.031 1089.4 348.799 1089.4 346.575V338.895H1088.52V339.935C1088.07 339.183 1087.3 338.799 1086.1 338.799C1084.12 338.799 1082.98 340.031 1082.98 342.303V343.455ZM1086.17 346.175C1084.61 346.175 1083.86 345.135 1083.86 343.455V342.303C1083.86 340.559 1084.65 339.615 1086.17 339.615C1087.83 339.615 1088.52 340.639 1088.52 342.207V343.471C1088.52 345.039 1087.96 346.175 1086.17 346.175ZM1099.68 339.199C1099.33 336.783 1097.76 335.759 1095.79 335.759C1093.39 335.759 1091.87 337.151 1091.87 340.719V342.031C1091.87 345.599 1093.39 346.991 1095.79 346.991C1097.68 346.991 1099.31 345.999 1099.66 343.519H1098.77C1098.42 345.279 1097.39 346.127 1095.79 346.127C1093.92 346.127 1092.8 345.055 1092.8 342.031V340.719C1092.8 337.711 1093.9 336.623 1095.79 336.623C1097.3 336.623 1098.4 337.327 1098.77 339.199H1099.68ZM1107.97 343.471V342.303C1107.97 340.031 1106.77 338.799 1104.72 338.799C1102.67 338.799 1101.47 340.031 1101.47 342.303V343.471C1101.47 345.711 1102.66 346.991 1104.72 346.991C1106.87 346.991 1107.97 345.647 1107.97 343.471ZM1107.09 343.471C1107.09 345.151 1106.27 346.175 1104.72 346.175C1103.11 346.175 1102.35 345.151 1102.35 343.471V342.303C1102.35 340.559 1103.19 339.615 1104.72 339.615C1106.24 339.615 1107.09 340.559 1107.09 342.303V343.471ZM1110.29 346.895H1111.17V342.095C1111.17 340.623 1111.88 339.631 1113.19 339.631C1114.34 339.631 1115.11 340.431 1115.11 342.175V346.895H1115.99V341.983C1115.99 340.575 1116.72 339.631 1118 339.631C1119.16 339.631 1119.92 340.431 1119.92 342.175V346.895H1120.8V342.159C1120.8 339.983 1119.78 338.799 1118.1 338.799C1117 338.799 1116.12 339.359 1115.67 340.367C1115.25 339.343 1114.42 338.799 1113.28 338.799C1112.23 338.799 1111.51 339.247 1111.17 339.983V338.895H1110.29V346.895ZM1123.52 346.895H1124.4V342.095C1124.4 340.623 1125.11 339.631 1126.42 339.631C1127.57 339.631 1128.34 340.431 1128.34 342.175V346.895H1129.22V341.983C1129.22 340.575 1129.95 339.631 1131.23 339.631C1132.39 339.631 1133.15 340.431 1133.15 342.175V346.895H1134.03V342.159C1134.03 339.983 1133.01 338.799 1131.33 338.799C1130.23 338.799 1129.35 339.359 1128.9 340.367C1128.48 339.343 1127.65 338.799 1126.51 338.799C1125.46 338.799 1124.74 339.247 1124.4 339.983V338.895H1123.52V346.895ZM1142.53 343.119V342.303C1142.53 340.031 1141.44 338.799 1139.44 338.799C1137.44 338.799 1136.35 340.031 1136.35 342.303V343.455C1136.35 345.679 1137.58 346.991 1139.71 346.991C1141.01 346.991 1141.89 346.575 1142.45 345.695L1141.74 345.199C1141.3 345.887 1140.64 346.175 1139.66 346.175C1137.97 346.175 1137.23 345.039 1137.23 343.455V343.119H1142.53ZM1137.23 342.303C1137.23 340.575 1137.98 339.615 1139.44 339.615C1140.9 339.615 1141.65 340.559 1141.65 342.303V342.319H1137.23V342.303ZM1147.8 339.631C1148.5 339.631 1148.98 339.903 1149.4 340.447L1150.13 339.903C1149.61 339.199 1148.92 338.799 1147.88 338.799C1146.87 338.799 1146.2 339.247 1145.86 339.983V338.895H1144.98V346.895H1145.86V342.079C1145.86 340.623 1146.55 339.631 1147.8 339.631ZM1156.58 345.199C1156.13 345.903 1155.38 346.175 1154.56 346.175C1152.8 346.175 1152.07 345.039 1152.07 343.455V342.303C1152.07 340.575 1152.98 339.615 1154.56 339.615C1155.36 339.615 1156.11 339.903 1156.56 340.511L1157.27 340.031C1156.67 339.215 1155.73 338.799 1154.56 338.799C1152.45 338.799 1151.19 340.031 1151.19 342.303V343.455C1151.19 345.711 1152.42 346.991 1154.56 346.991C1155.81 346.991 1156.75 346.543 1157.28 345.695L1156.58 345.199ZM1164.94 343.119V342.303C1164.94 340.031 1163.85 338.799 1161.85 338.799C1159.85 338.799 1158.76 340.031 1158.76 342.303V343.455C1158.76 345.679 1159.99 346.991 1162.12 346.991C1163.42 346.991 1164.3 346.575 1164.86 345.695L1164.15 345.199C1163.7 345.887 1163.05 346.175 1162.07 346.175C1160.38 346.175 1159.64 345.039 1159.64 343.455V343.119H1164.94ZM1159.64 342.303C1159.64 340.575 1160.39 339.615 1161.85 339.615C1163.3 339.615 1164.06 340.559 1164.06 342.303V342.319H1159.64V342.303ZM1168.29 345.647H1167.2V348.879L1168.29 347.935V345.647ZM1176.63 335.855H1175.73V346.895H1176.66V337.903L1179.88 344.431H1180.71L1183.96 337.887V346.895H1184.88V335.855H1183.97L1180.31 343.199L1176.63 335.855ZM1187.52 344.607C1187.52 346.143 1188.53 346.991 1190.31 346.991C1191.33 346.991 1192.13 346.751 1192.58 345.903V346.895H1193.46V341.359C1193.46 339.407 1192.53 338.799 1190.58 338.799C1189.16 338.799 1188.36 339.135 1187.8 340.079L1188.47 340.543C1188.98 339.695 1189.6 339.631 1190.56 339.631C1192.04 339.631 1192.58 339.999 1192.58 341.359V342.351H1190.24C1188.6 342.351 1187.52 343.071 1187.52 344.607ZM1192.58 343.919C1192.58 345.711 1191.6 346.159 1190.31 346.159C1189.19 346.159 1188.4 345.743 1188.4 344.623C1188.4 343.775 1188.87 343.135 1190.24 343.135H1192.58V343.919ZM1195.79 343.455C1195.79 345.647 1196.83 346.991 1198.91 346.991C1200.11 346.991 1200.87 346.655 1201.32 345.919V346.575C1201.32 348.159 1200.6 349.215 1198.99 349.215C1198.06 349.215 1197.4 348.927 1196.97 348.239L1196.28 348.735C1196.81 349.615 1197.66 350.031 1198.94 350.031C1201 350.031 1202.2 348.799 1202.2 346.575V338.895H1201.32V339.935C1200.87 339.183 1200.11 338.799 1198.91 338.799C1196.92 338.799 1195.79 340.031 1195.79 342.303V343.455ZM1198.97 346.175C1197.42 346.175 1196.67 345.135 1196.67 343.455V342.303C1196.67 340.559 1197.45 339.615 1198.97 339.615C1200.63 339.615 1201.32 340.639 1201.32 342.207V343.471C1201.32 345.039 1200.76 346.175 1198.97 346.175ZM1210.69 343.119V342.303C1210.69 340.031 1209.6 338.799 1207.6 338.799C1205.6 338.799 1204.52 340.031 1204.52 342.303V343.455C1204.52 345.679 1205.75 346.991 1207.88 346.991C1209.17 346.991 1210.05 346.575 1210.61 345.695L1209.91 345.199C1209.46 345.887 1208.8 346.175 1207.83 346.175C1206.13 346.175 1205.4 345.039 1205.4 343.455V343.119H1210.69ZM1205.4 342.303C1205.4 340.575 1206.15 339.615 1207.6 339.615C1209.06 339.615 1209.81 340.559 1209.81 342.303V342.319H1205.4V342.303ZM1213.15 346.895H1214.03V342.095C1214.03 340.623 1214.78 339.631 1216.28 339.631C1217.53 339.631 1218.44 340.351 1218.44 342.175V346.895H1219.32V342.159C1219.32 339.903 1218.15 338.799 1216.38 338.799C1215.18 338.799 1214.44 339.215 1214.03 339.983V338.895H1213.15V346.895ZM1221.34 339.711H1222.37V344.431C1222.37 346.095 1222.88 346.895 1224.66 346.895H1225.22V346.047H1224.69C1223.39 346.047 1223.25 345.471 1223.25 344.191V339.711H1225.22V338.895H1223.25V337.135H1222.37V338.895H1221.34V339.711ZM1233.47 343.471V342.303C1233.47 340.031 1232.27 338.799 1230.22 338.799C1228.17 338.799 1226.97 340.031 1226.97 342.303V343.471C1226.97 345.711 1228.15 346.991 1230.22 346.991C1232.36 346.991 1233.47 345.647 1233.47 343.471ZM1232.59 343.471C1232.59 345.151 1231.77 346.175 1230.22 346.175C1228.6 346.175 1227.85 345.151 1227.85 343.471V342.303C1227.85 340.559 1228.68 339.615 1230.22 339.615C1231.74 339.615 1232.59 340.559 1232.59 342.303V343.471ZM1236.59 345.647H1235.51V348.879L1236.59 347.935V345.647ZM1244.93 345.599H1243.64V346.895H1244.93V345.599ZM1248.79 345.599H1247.49V346.895H1248.79V345.599ZM1252.64 345.599H1251.35V346.895H1252.64V345.599ZM1255.19 348.751C1257.38 347.103 1257.78 346.079 1257.78 344.303V338.351C1257.78 336.575 1257.38 335.551 1255.19 333.903L1254.64 334.607C1256.56 336.079 1256.9 336.927 1256.9 338.655V343.999C1256.9 345.727 1256.56 346.591 1254.64 348.047L1255.19 348.751ZM1054.83 365.439C1054.83 366.175 1055.44 366.783 1056.18 366.783C1056.91 366.783 1057.52 366.175 1057.52 365.439C1057.52 364.703 1056.91 364.095 1056.18 364.095C1055.44 364.095 1054.83 364.703 1054.83 365.439ZM1076.87 363.199C1076.51 360.783 1074.95 359.759 1072.98 359.759C1070.58 359.759 1069.06 361.151 1069.06 364.719V366.031C1069.06 369.599 1070.58 370.991 1072.98 370.991C1074.87 370.991 1076.5 369.999 1076.85 367.519H1075.95C1075.6 369.279 1074.58 370.127 1072.98 370.127C1071.11 370.127 1069.99 369.055 1069.99 366.031V364.719C1069.99 361.711 1071.09 360.623 1072.98 360.623C1074.48 360.623 1075.59 361.327 1075.95 363.199H1076.87ZM1087.04 370.895L1084.48 366.015C1085.94 365.615 1086.75 364.607 1086.75 363.039C1086.75 360.943 1085.31 359.855 1082.82 359.855H1079.38V370.895H1080.31V366.207H1082.82C1083.07 366.207 1083.31 366.207 1083.55 366.175L1086 370.895H1087.04ZM1080.31 365.343V360.719H1082.82C1084.75 360.719 1085.83 361.391 1085.83 363.039C1085.83 364.687 1084.75 365.343 1082.82 365.343H1080.31ZM1090.41 359.855H1089.52V370.895H1090.44V361.903L1093.66 368.431H1094.49L1097.74 361.887V370.895H1098.67V359.855H1097.76L1094.09 367.199L1090.41 359.855ZM1112.6 366.303C1112.6 364.031 1111.47 362.799 1109.48 362.799C1108.27 362.799 1107.51 363.183 1107.07 363.903V362.895H1106.19V373.935H1107.07V369.951C1107.51 370.655 1108.27 370.991 1109.48 370.991C1111.56 370.991 1112.6 369.647 1112.6 367.455V366.303ZM1109.42 370.175C1107.66 370.175 1107.08 369.103 1107.07 367.599V366.207C1107.07 364.639 1107.72 363.615 1109.42 363.615C1110.94 363.615 1111.72 364.559 1111.72 366.303V367.455C1111.72 369.135 1110.95 370.175 1109.42 370.175ZM1114.92 368.463C1114.92 370.127 1115.48 370.927 1117.32 370.927V370.095C1115.92 370.095 1115.8 369.359 1115.8 368.239V359.855H1114.92V368.463ZM1119.28 368.607C1119.28 370.143 1120.29 370.991 1122.06 370.991C1123.09 370.991 1123.89 370.751 1124.33 369.903V370.895H1125.21V365.359C1125.21 363.407 1124.29 362.799 1122.33 362.799C1120.91 362.799 1120.11 363.135 1119.55 364.079L1120.22 364.543C1120.73 363.695 1121.36 363.631 1122.32 363.631C1123.79 363.631 1124.33 363.999 1124.33 365.359V366.351H1122C1120.35 366.351 1119.28 367.071 1119.28 368.607ZM1124.33 367.919C1124.33 369.711 1123.36 370.159 1122.06 370.159C1120.94 370.159 1120.16 369.743 1120.16 368.623C1120.16 367.775 1120.62 367.135 1122 367.135H1124.33V367.919ZM1127.23 363.711H1128.26V368.431C1128.26 370.095 1128.77 370.895 1130.55 370.895H1131.11V370.047H1130.58C1129.28 370.047 1129.14 369.471 1129.14 368.191V363.711H1131.11V362.895H1129.14V361.135H1128.26V362.895H1127.23V363.711ZM1132.64 362.895V363.711H1133.66V370.895H1134.54V363.711H1136.3V362.895H1134.54V362.543C1134.54 361.311 1134.67 360.703 1135.95 360.703H1136.3V359.855H1135.93C1134.17 359.855 1133.66 360.639 1133.66 362.319V362.895H1132.64ZM1144.32 367.471V366.303C1144.32 364.031 1143.12 362.799 1141.08 362.799C1139.03 362.799 1137.83 364.031 1137.83 366.303V367.471C1137.83 369.711 1139.01 370.991 1141.08 370.991C1143.22 370.991 1144.32 369.647 1144.32 367.471ZM1143.44 367.471C1143.44 369.151 1142.63 370.175 1141.08 370.175C1139.46 370.175 1138.71 369.151 1138.71 367.471V366.303C1138.71 364.559 1139.54 363.615 1141.08 363.615C1142.6 363.615 1143.44 364.559 1143.44 366.303V367.471ZM1149.46 363.631C1150.16 363.631 1150.64 363.903 1151.06 364.447L1151.8 363.903C1151.27 363.199 1150.58 362.799 1149.54 362.799C1148.53 362.799 1147.86 363.247 1147.52 363.983V362.895H1146.64V370.895H1147.52V366.079C1147.52 364.623 1148.21 363.631 1149.46 363.631ZM1153.31 370.895H1154.19V366.095C1154.19 364.623 1154.9 363.631 1156.21 363.631C1157.36 363.631 1158.13 364.431 1158.13 366.175V370.895H1159.01V365.983C1159.01 364.575 1159.74 363.631 1161.02 363.631C1162.18 363.631 1162.94 364.431 1162.94 366.175V370.895H1163.82V366.159C1163.82 363.983 1162.8 362.799 1161.12 362.799C1160.02 362.799 1159.14 363.359 1158.69 364.367C1158.27 363.343 1157.44 362.799 1156.3 362.799C1155.25 362.799 1154.53 363.247 1154.19 363.983V362.895H1153.31V370.895ZM1054.83 389.439C1054.83 390.175 1055.44 390.783 1056.18 390.783C1056.91 390.783 1057.52 390.175 1057.52 389.439C1057.52 388.703 1056.91 388.095 1056.18 388.095C1055.44 388.095 1054.83 388.703 1054.83 389.439ZM1076.87 387.199C1076.51 384.783 1074.95 383.759 1072.98 383.759C1070.58 383.759 1069.06 385.151 1069.06 388.719V390.031C1069.06 393.599 1070.58 394.991 1072.98 394.991C1074.87 394.991 1076.5 393.999 1076.85 391.519H1075.95C1075.6 393.279 1074.58 394.127 1072.98 394.127C1071.11 394.127 1069.99 393.055 1069.99 390.031V388.719C1069.99 385.711 1071.09 384.623 1072.98 384.623C1074.48 384.623 1075.59 385.327 1075.95 387.199H1076.87ZM1085.23 386.895H1084.35V391.695C1084.35 393.151 1083.6 394.159 1082.08 394.159C1080.85 394.159 1079.94 393.439 1079.94 391.631V386.895H1079.06V391.631C1079.06 393.903 1080.21 394.991 1081.99 394.991C1083.19 394.991 1083.92 394.575 1084.35 393.823V394.895H1085.23V386.895ZM1093.21 388.127C1092.6 387.135 1091.64 386.799 1090.38 386.799C1088.57 386.799 1087.59 387.663 1087.59 388.959C1087.59 390.575 1088.82 391.039 1090.18 391.215C1091.77 391.423 1092.57 391.775 1092.57 392.799C1092.57 393.759 1091.78 394.159 1090.54 394.159C1089.29 394.159 1088.68 393.855 1088.2 393.183L1087.51 393.663C1088.1 394.495 1088.94 394.991 1090.52 394.991C1092.65 394.991 1093.45 394.031 1093.45 392.783C1093.45 391.087 1092.15 390.639 1090.6 390.431C1089.48 390.287 1088.47 390.063 1088.47 388.943C1088.47 388.031 1089.29 387.631 1090.36 387.631C1091.53 387.631 1092.04 387.903 1092.54 388.607L1093.21 388.127ZM1095.11 387.711H1096.14V392.431C1096.14 394.095 1096.65 394.895 1098.42 394.895H1098.98V394.047H1098.46C1097.16 394.047 1097.02 393.471 1097.02 392.191V387.711H1098.98V386.895H1097.02V385.135H1096.14V386.895H1095.11V387.711ZM1107.24 391.471V390.303C1107.24 388.031 1106.04 386.799 1103.99 386.799C1101.94 386.799 1100.74 388.031 1100.74 390.303V391.471C1100.74 393.711 1101.92 394.991 1103.99 394.991C1106.13 394.991 1107.24 393.647 1107.24 391.471ZM1106.36 391.471C1106.36 393.151 1105.54 394.175 1103.99 394.175C1102.37 394.175 1101.62 393.151 1101.62 391.471V390.303C1101.62 388.559 1102.45 387.615 1103.99 387.615C1105.51 387.615 1106.36 388.559 1106.36 390.303V391.471ZM1109.56 394.895H1110.44V390.095C1110.44 388.623 1111.14 387.631 1112.45 387.631C1113.61 387.631 1114.37 388.431 1114.37 390.175V394.895H1115.25V389.983C1115.25 388.575 1115.99 387.631 1117.27 387.631C1118.42 387.631 1119.19 388.431 1119.19 390.175V394.895H1120.07V390.159C1120.07 387.983 1119.05 386.799 1117.37 386.799C1116.26 386.799 1115.38 387.359 1114.93 388.367C1114.52 387.343 1113.69 386.799 1112.55 386.799C1111.49 386.799 1110.77 387.247 1110.44 387.983V386.895H1109.56V394.895ZM1127.27 394.895H1128.15V390.095C1128.15 388.623 1128.9 387.631 1130.4 387.631C1131.65 387.631 1132.56 388.351 1132.56 390.175V394.895H1133.44V390.159C1133.44 387.903 1132.28 386.799 1130.5 386.799C1129.32 386.799 1128.58 387.215 1128.15 387.983V383.855H1127.27V394.895ZM1135.77 392.607C1135.77 394.143 1136.78 394.991 1138.55 394.991C1139.58 394.991 1140.38 394.751 1140.82 393.903V394.895H1141.7V389.359C1141.7 387.407 1140.78 386.799 1138.82 386.799C1137.4 386.799 1136.6 387.135 1136.04 388.079L1136.71 388.543C1137.22 387.695 1137.85 387.631 1138.81 387.631C1140.28 387.631 1140.82 387.999 1140.82 389.359V390.351H1138.49C1136.84 390.351 1135.77 391.071 1135.77 392.607ZM1140.82 391.919C1140.82 393.711 1139.85 394.159 1138.55 394.159C1137.43 394.159 1136.65 393.743 1136.65 392.623C1136.65 391.775 1137.11 391.135 1138.49 391.135H1140.82V391.919ZM1144.43 394.895H1145.31V390.095C1145.31 388.623 1146.06 387.631 1147.57 387.631C1148.81 387.631 1149.73 388.351 1149.73 390.175V394.895H1150.61V390.159C1150.61 387.903 1149.44 386.799 1147.66 386.799C1146.46 386.799 1145.73 387.215 1145.31 387.983V386.895H1144.43V394.895ZM1158.47 387.935C1158.02 387.183 1157.25 386.799 1156.05 386.799C1154.07 386.799 1152.93 388.031 1152.93 390.303V391.455C1152.93 393.647 1153.97 394.991 1156.05 394.991C1157.25 394.991 1158.02 394.655 1158.47 393.919V394.895H1159.35V383.855H1158.47V387.935ZM1156.12 394.175C1154.56 394.175 1153.81 393.135 1153.81 391.455V390.303C1153.81 388.559 1154.6 387.615 1156.12 387.615C1157.83 387.615 1158.47 388.687 1158.47 390.319V391.471C1158.47 393.039 1157.91 394.175 1156.12 394.175ZM1167.84 391.119V390.303C1167.84 388.031 1166.75 386.799 1164.75 386.799C1162.75 386.799 1161.66 388.031 1161.66 390.303V391.455C1161.66 393.679 1162.89 394.991 1165.02 394.991C1166.32 394.991 1167.2 394.575 1167.76 393.695L1167.05 393.199C1166.61 393.887 1165.95 394.175 1164.97 394.175C1163.28 394.175 1162.54 393.039 1162.54 391.455V391.119H1167.84ZM1162.54 390.303C1162.54 388.575 1163.29 387.615 1164.75 387.615C1166.21 387.615 1166.96 388.559 1166.96 390.303V390.319H1162.54V390.303ZM1170.29 392.463C1170.29 394.127 1170.85 394.927 1172.69 394.927V394.095C1171.3 394.095 1171.17 393.359 1171.17 392.239V383.855H1170.29V392.463ZM1175.29 394.895H1176.17V386.895H1175.29V394.895ZM1175.2 384.927H1176.27V383.855H1175.2V384.927ZM1179.13 394.895H1180.01V390.095C1180.01 388.623 1180.76 387.631 1182.26 387.631C1183.51 387.631 1184.42 388.351 1184.42 390.175V394.895H1185.3V390.159C1185.3 387.903 1184.14 386.799 1182.36 386.799C1181.16 386.799 1180.42 387.215 1180.01 387.983V386.895H1179.13V394.895ZM1187.63 391.455C1187.63 393.647 1188.67 394.991 1190.75 394.991C1191.95 394.991 1192.72 394.655 1193.16 393.919V394.575C1193.16 396.159 1192.44 397.215 1190.83 397.215C1189.9 397.215 1189.24 396.927 1188.81 396.239L1188.12 396.735C1188.65 397.615 1189.5 398.031 1190.78 398.031C1192.84 398.031 1194.04 396.799 1194.04 394.575V386.895H1193.16V387.935C1192.72 387.183 1191.95 386.799 1190.75 386.799C1188.76 386.799 1187.63 388.031 1187.63 390.303V391.455ZM1190.81 394.175C1189.26 394.175 1188.51 393.135 1188.51 391.455V390.303C1188.51 388.559 1189.29 387.615 1190.81 387.615C1192.48 387.615 1193.16 388.639 1193.16 390.207V391.471C1193.16 393.039 1192.6 394.175 1190.81 394.175Z" fill="white"/>
<path d="M798.584 400.049L799.336 397.761H803.32L804.072 400.049H806.04L802.2 389.009H800.44L796.6 400.049H798.584ZM801.32 391.697L802.792 396.161H799.848L801.32 391.697ZM811.54 396.017C814.1 396.017 815.604 394.737 815.604 392.497C815.604 390.225 814.084 389.009 811.54 389.009H807.78V400.049H809.636V396.017H811.54ZM809.636 394.417V390.625H811.348C813.044 390.625 813.748 391.297 813.748 392.497C813.748 393.761 813.044 394.417 811.348 394.417H809.636ZM819.698 389.009H817.842V400.049H819.698V389.009Z" fill="white"/>
<path d="M471.093 150.629L415.383 113.169L431.483 34.5391L486.463 71.7091L471.093 150.629Z" fill="#1A4973"/>
<path d="M471.092 150.629L536.602 135.979L551.502 56.8291L486.462 71.6991L471.092 150.629Z" fill="#1D72A6"/>
<path d="M496.214 19.8887L551.504 56.8287L486.464 71.7087L431.494 34.5387L496.214 19.8887Z" fill="url(#paint1_linear_1_253)"/>
<path d="M427.592 53.5586C408.872 57.0586 396.532 63.9386 395.392 73.1486C394.322 81.8086 403.342 90.8786 418.792 98.5586C432.192 105.219 450.422 110.819 471.102 114.179" stroke="white" stroke-width="2" stroke-miterlimit="10"/>
<path d="M549.161 69.2188C565.441 77.0287 575.031 86.3888 573.921 95.2988C572.751 104.699 559.911 111.679 540.521 115.109C527.151 117.469 510.681 118.149 492.771 116.779" stroke="white" stroke-width="2" stroke-miterlimit="10"/>
<path d="M466.725 118.116L466.15 117.449L471.08 114.14L467.205 109.647L467.936 109.156L472.386 114.316L466.725 118.116Z" fill="white" stroke="white"/>
<path d="M447.302 174.069L453.182 190.629H455.726L461.606 174.069H458.558L454.43 186.189L450.35 174.069H447.302ZM464.208 190.629H466.776V178.629H464.208V190.629ZM464.088 176.685H466.896V174.069H464.088V176.685ZM477.719 187.461C477.239 188.205 476.663 188.637 475.247 188.637C473.351 188.637 472.631 187.173 472.631 185.301V185.253H479.807V183.933C479.807 180.381 478.247 178.413 474.959 178.413C471.815 178.413 470.087 180.261 470.087 183.789V185.421C470.087 188.613 471.911 190.845 475.343 190.845C477.455 190.845 478.799 190.269 479.639 188.805L477.719 187.461ZM474.959 180.645C476.423 180.645 477.143 181.533 477.239 183.285H472.655C472.775 181.653 473.471 180.645 474.959 180.645ZM490.066 182.469L492.994 190.629H495.106L498.514 178.629H495.826L493.81 186.237L490.954 178.629H488.986L486.298 186.189L484.282 178.629H481.618L485.002 190.629H487.138L490.066 182.469ZM507.776 187.461C507.296 188.205 506.72 188.637 505.304 188.637C503.408 188.637 502.688 187.173 502.688 185.301V185.253H509.864V183.933C509.864 180.381 508.304 178.413 505.016 178.413C501.872 178.413 500.144 180.261 500.144 183.789V185.421C500.144 188.613 501.968 190.845 505.4 190.845C507.512 190.845 508.856 190.269 509.696 188.805L507.776 187.461ZM505.016 180.645C506.48 180.645 507.2 181.533 507.296 183.285H502.712C502.832 181.653 503.528 180.645 505.016 180.645ZM521.608 180.189C520.864 179.013 519.808 178.413 518.272 178.413C516.856 178.413 516.04 179.013 515.584 179.709V178.629H513.064V190.629H515.632V183.381C515.632 181.653 516.544 180.693 517.84 180.693C518.656 180.693 519.184 181.077 519.568 181.629L521.608 180.189Z" fill="white"/>
<path d="M478.873 413.621L417.372 386.705L419.181 306.464L479.912 333.225L478.873 413.621Z" fill="#1A4973"/>
<path d="M478.873 413.621L540.717 387.515L541.252 306.977L479.91 333.215L478.873 413.621Z" fill="#1D72A6"/>
<path d="M480.257 280.497L541.252 306.976L479.912 333.225L419.191 306.462L480.257 280.497Z" fill="url(#paint2_linear_1_253)"/>
<circle cx="541.506" cy="349.644" r="27.0876" fill="white"/>
<path d="M544.996 334.537L546.133 333.252C548.121 331.004 551.557 330.793 553.805 332.782L555.219 334.032C557.467 336.02 557.678 339.456 555.689 341.704L554.553 342.989L544.996 334.537Z" fill="#1D72A6"/>
<path d="M554.744 342.772L545.187 334.318L528.917 352.716H528.912L527.642 358.971L526.371 365.222L532.423 363.201L538.475 361.175L538.47 361.169L554.744 342.772Z" fill="#1A4973"/>
<path d="M554.778 342.742L545.213 334.283L543.498 336.223L553.062 344.682L554.778 342.742Z" fill="#082036"/>
<path d="M431.026 452.139C430.474 448.539 428.29 446.787 425.002 446.787C421.306 446.787 418.81 449.019 418.81 454.227V456.339C418.81 461.547 421.306 463.779 425.002 463.779C428.29 463.779 430.45 462.147 431.002 458.427H428.338C427.906 460.443 426.898 461.355 425.002 461.355C422.794 461.355 421.594 459.867 421.594 456.339V454.227C421.594 450.651 422.794 449.211 425.002 449.211C426.826 449.211 427.906 450.123 428.338 452.139H431.026ZM443.528 456.795C443.528 453.267 441.68 451.347 438.44 451.347C435.2 451.347 433.328 453.267 433.328 456.795V458.307C433.328 461.619 435.08 463.779 438.44 463.779C441.968 463.779 443.528 461.499 443.528 458.307V456.795ZM438.44 461.571C436.496 461.571 435.872 460.107 435.872 458.235V456.843C435.872 454.779 436.712 453.579 438.44 453.579C440.144 453.579 440.984 454.755 440.984 456.843V458.235C440.984 460.107 440.264 461.571 438.44 461.571ZM446.482 463.563H449.05V456.315C449.05 454.707 449.938 453.627 451.522 453.627C452.842 453.627 453.802 454.227 453.802 456.339V463.563H456.346V456.051C456.346 452.595 454.45 451.347 451.978 451.347C450.394 451.347 449.53 451.923 449.002 452.643V451.563H446.482V463.563ZM458.875 451.563V453.771H460.411V463.563H462.955V453.771H466.267V463.563H468.811V451.563H462.955V451.299C462.955 449.907 463.171 449.307 464.515 449.307H465.067V447.003H464.323C461.443 447.003 460.411 447.987 460.411 450.819V451.563H458.875ZM479.261 452.403C478.613 451.731 477.677 451.347 476.381 451.347C473.477 451.347 471.605 453.267 471.605 456.723V458.355C471.605 461.499 473.189 463.779 476.381 463.779C477.653 463.779 478.613 463.443 479.261 462.771V463.323C479.261 465.267 478.421 466.083 476.501 466.083C475.181 466.083 474.437 465.675 473.909 464.883L472.109 466.179C473.069 467.715 474.413 468.267 476.573 468.267C479.693 468.267 481.805 467.019 481.805 463.323V451.563H479.261V452.403ZM476.717 461.571C474.869 461.571 474.149 460.107 474.149 458.235V456.843C474.149 454.755 474.989 453.579 476.717 453.579C478.421 453.579 479.261 454.779 479.261 456.843V458.235C479.261 460.107 478.637 461.571 476.717 461.571ZM495.139 451.563H492.595V458.811C492.595 460.467 491.731 461.523 490.147 461.523C488.803 461.523 487.843 460.923 487.843 458.787V451.563H485.275V459.051C485.275 462.507 487.195 463.779 489.667 463.779C491.347 463.779 492.067 463.347 492.619 462.483V463.563H495.139V451.563ZM507.171 453.123C506.427 451.947 505.371 451.347 503.835 451.347C502.419 451.347 501.603 451.947 501.147 452.643V451.563H498.627V463.563H501.195V456.315C501.195 454.587 502.107 453.627 503.403 453.627C504.219 453.627 504.747 454.011 505.131 454.563L507.171 453.123ZM508.216 460.035C508.216 462.435 509.848 463.779 512.488 463.779C513.952 463.779 514.696 463.395 515.272 462.459V463.563H517.792V455.499C517.792 452.307 516.136 451.347 513.064 451.347C510.688 451.347 509.392 451.923 508.528 453.339L510.376 454.635C510.952 453.699 511.6 453.555 512.896 453.555C514.696 453.555 515.272 453.963 515.272 455.475V456.483H512.68C510.112 456.483 508.216 457.467 508.216 460.035ZM515.272 459.027C515.272 461.115 514.336 461.595 512.776 461.595C511.552 461.595 510.736 461.139 510.736 460.035C510.736 458.979 511.36 458.451 512.872 458.451H515.272V459.027ZM520.295 453.771H521.831V459.747C521.831 462.579 522.863 463.563 525.743 463.563H526.919V461.259H525.935C524.591 461.259 524.375 460.659 524.375 459.267V453.771H526.919V451.563H524.375V448.923H521.831V451.563H520.295V453.771ZM539.452 456.795C539.452 453.267 537.604 451.347 534.364 451.347C531.124 451.347 529.252 453.267 529.252 456.795V458.307C529.252 461.619 531.004 463.779 534.364 463.779C537.892 463.779 539.452 461.499 539.452 458.307V456.795ZM534.364 461.571C532.42 461.571 531.796 460.107 531.796 458.235V456.843C531.796 454.779 532.636 453.579 534.364 453.579C536.068 453.579 536.908 454.755 536.908 456.843V458.235C536.908 460.107 536.188 461.571 534.364 461.571ZM550.95 453.123C550.206 451.947 549.15 451.347 547.614 451.347C546.198 451.347 545.382 451.947 544.926 452.643V451.563H542.406V463.563H544.974V456.315C544.974 454.587 545.886 453.627 547.182 453.627C547.998 453.627 548.526 454.011 548.91 454.563L550.95 453.123Z" fill="white"/>
<path d="M973.882 418.536C1008.29 418.536 1036.18 410.224 1036.18 399.97C1036.18 389.716 1008.29 381.404 973.882 381.404C939.478 381.404 911.588 389.716 911.588 399.97C911.588 410.224 939.478 418.536 973.882 418.536Z" fill="#1D72A6"/>
<path d="M1036.18 368.08H911.588V399.971H1036.18V368.08Z" fill="#1D72A6"/>
<path d="M973.882 387.049C1008.29 387.049 1036.18 378.736 1036.18 368.483C1036.18 358.229 1008.29 349.917 973.882 349.917C939.478 349.917 911.588 358.229 911.588 368.483C911.588 378.736 939.478 387.049 973.882 387.049Z" fill="url(#paint3_linear_1_253)"/>
<path d="M973.882 381.405C1008.29 381.405 1036.18 373.093 1036.18 362.839C1036.18 352.586 1008.29 344.273 973.882 344.273C939.478 344.273 911.588 352.586 911.588 362.839C911.588 373.093 939.478 381.405 973.882 381.405Z" fill="#1D72A6"/>
<path d="M1036.18 330.949H911.588V362.84H1036.18V330.949Z" fill="#1D72A6"/>
<path d="M973.882 349.921C1008.29 349.921 1036.18 341.608 1036.18 331.355C1036.18 321.101 1008.29 312.789 973.882 312.789C939.478 312.789 911.588 321.101 911.588 331.355C911.588 341.608 939.478 349.921 973.882 349.921Z" fill="url(#paint4_linear_1_253)"/>
<path d="M973.882 344.276C1008.29 344.276 1036.18 335.964 1036.18 325.71C1036.18 315.457 1008.29 307.145 973.882 307.145C939.478 307.145 911.588 315.457 911.588 325.71C911.588 335.964 939.478 344.276 973.882 344.276Z" fill="#1D72A6"/>
<path d="M1036.18 293.819H911.588V325.71H1036.18V293.819Z" fill="#1D72A6"/>
<path d="M973.882 312.788C1008.29 312.788 1036.18 304.476 1036.18 294.222C1036.18 283.968 1008.29 275.656 973.882 275.656C939.478 275.656 911.588 283.968 911.588 294.222C911.588 304.476 939.478 312.788 973.882 312.788Z" fill="url(#paint5_linear_1_253)"/>
<path d="M956.801 458.536C960.521 458.536 963.017 456.544 963.017 451.24V449.272C963.017 443.968 960.521 441.976 956.801 441.976H951.209V458.536H956.801ZM956.801 456.136H953.993V444.4H956.801C959.177 444.4 960.233 445.864 960.233 449.272V451.24C960.233 454.648 959.177 456.136 956.801 456.136ZM965.662 455.008C965.662 457.408 967.294 458.752 969.934 458.752C971.398 458.752 972.142 458.368 972.718 457.432V458.536H975.238V450.472C975.238 447.28 973.582 446.32 970.51 446.32C968.134 446.32 966.838 446.896 965.974 448.312L967.822 449.608C968.398 448.672 969.046 448.528 970.342 448.528C972.142 448.528 972.718 448.936 972.718 450.448V451.456H970.126C967.558 451.456 965.662 452.44 965.662 455.008ZM972.718 454C972.718 456.088 971.782 456.568 970.222 456.568C968.998 456.568 968.182 456.112 968.182 455.008C968.182 453.952 968.806 453.424 970.318 453.424H972.718V454ZM977.741 448.744H979.277V454.72C979.277 457.552 980.309 458.536 983.189 458.536H984.365V456.232H983.381C982.037 456.232 981.821 455.632 981.821 454.24V448.744H984.365V446.536H981.821V443.896H979.277V446.536H977.741V448.744ZM986.602 455.008C986.602 457.408 988.234 458.752 990.874 458.752C992.338 458.752 993.082 458.368 993.658 457.432V458.536H996.178V450.472C996.178 447.28 994.522 446.32 991.45 446.32C989.074 446.32 987.778 446.896 986.914 448.312L988.762 449.608C989.338 448.672 989.986 448.528 991.282 448.528C993.082 448.528 993.658 448.936 993.658 450.448V451.456H991.066C988.498 451.456 986.602 452.44 986.602 455.008ZM993.658 454C993.658 456.088 992.722 456.568 991.162 456.568C989.938 456.568 989.122 456.112 989.122 455.008C989.122 453.952 989.746 453.424 991.258 453.424H993.658V454Z" fill="white"/>
<path d="M395.42 544.563H573.898C577.509 544.564 580.444 547.506 580.444 551.145V667.215C580.444 670.854 577.51 673.796 573.898 673.796H395.42C391.809 673.796 388.873 670.854 388.873 667.215V551.145C388.873 547.619 391.628 544.748 395.083 544.572L395.42 544.563Z" stroke="#1D72A6" stroke-width="2" stroke-miterlimit="10"/>
<path d="M395.42 544.563H573.898C577.492 544.564 580.444 547.523 580.444 551.145V556.463H388.873V551.145C388.873 547.636 391.644 544.749 395.085 544.572L395.42 544.563Z" stroke="#1D72A6" stroke-width="2" stroke-miterlimit="10"/>
<path d="M569.477 553.217C571.047 553.217 572.32 551.939 572.32 550.361C572.32 548.784 571.047 547.506 569.477 547.506C567.907 547.506 566.635 548.784 566.635 550.361C566.635 551.939 567.907 553.217 569.477 553.217Z" fill="#3C8FC2"/>
<path d="M559.571 553.217C561.141 553.217 562.414 551.939 562.414 550.361C562.414 548.784 561.141 547.506 559.571 547.506C558.001 547.506 556.729 548.784 556.729 550.361C556.729 551.939 558.001 553.217 559.571 553.217Z" fill="#3C8FC2"/>
<path d="M478.023 636.156L449.623 617.06L457.831 576.977L485.858 595.925L478.023 636.156Z" fill="#1A4973"/>
<path d="M478.022 636.157L511.417 628.689L519.012 588.34L485.857 595.921L478.022 636.157Z" fill="#3C8FC2"/>
<path d="M490.828 569.509L519.013 588.34L485.858 595.925L457.836 576.977L490.828 569.509Z" fill="url(#paint6_linear_1_253)"/>
<path d="M479.02 658.898C474.843 658.661 471.101 657.912 468.293 656.841C465.056 655.605 463.062 653.944 463.079 652.146C463.097 650.235 465.389 648.556 469.023 647.43C472.534 646.261 484.387 644.493 494.614 648.24" stroke="white" stroke-width="2" stroke-miterlimit="10"/>
<path d="M493.928 647.994C497.378 649.22 499.516 650.909 499.492 652.744C499.467 654.679 497.04 656.381 493.217 657.508C490.581 658.283 487.283 658.786 483.65 658.905" stroke="white" stroke-width="2" stroke-miterlimit="10"/>
<path d="M476.386 661.634L475.987 661.263L478.794 658.896L476.108 656.397L476.524 656.045L479.609 658.915L476.386 661.634Z" fill="white" stroke="white"/>
<circle cx="516.421" cy="609.418" r="13.4929" fill="white"/>
<path d="M518.16 601.893L518.726 601.253C519.717 600.132 521.428 600.027 522.548 601.018L523.252 601.641C524.372 602.631 524.477 604.343 523.487 605.463L522.921 606.103L518.16 601.893Z" fill="#3C8FC2"/>
<path d="M523.014 605.994L518.253 601.783L510.149 610.947H510.147L509.514 614.063L508.881 617.177L511.895 616.17L514.91 615.161L514.907 615.158L523.014 605.994Z" fill="#1A4973"/>
<path d="M523.032 605.979L518.268 601.766L517.413 602.732L522.178 606.945L523.032 605.979Z" fill="#082036"/>
<path d="M427.482 698.236V714.796H437.634V712.396H430.266V707.428H436.914V705.028H430.266V700.66H437.634V698.236H427.482ZM450.623 714.796L446.471 708.652L450.215 702.796H447.335L444.983 706.588L442.655 702.796H439.751L443.495 708.652L439.367 714.796H442.247L444.983 710.788L447.719 714.796H450.623ZM463.112 707.956C463.112 704.524 461.288 702.58 458.408 702.58C457.04 702.58 456.08 703.012 455.48 703.756V702.796H452.912V719.356H455.48V714.028C456.08 714.676 456.992 715.012 458.384 715.012C461.576 715.012 463.112 712.708 463.112 709.588V707.956ZM458.024 712.804C456.08 712.804 455.48 711.34 455.48 709.468V707.932C455.504 705.964 456.344 704.812 458.024 704.812C459.728 704.812 460.568 705.988 460.568 708.076V709.468C460.568 711.34 459.848 712.804 458.024 712.804ZM473.205 711.628C472.725 712.372 472.149 712.804 470.733 712.804C468.837 712.804 468.117 711.34 468.117 709.468V709.42H475.293V708.1C475.293 704.548 473.733 702.58 470.445 702.58C467.301 702.58 465.573 704.428 465.573 707.956V709.588C465.573 712.78 467.397 715.012 470.829 715.012C472.941 715.012 474.285 714.436 475.125 712.972L473.205 711.628ZM470.445 704.812C471.909 704.812 472.629 705.7 472.725 707.452H468.141C468.261 705.82 468.957 704.812 470.445 704.812ZM487.036 704.356C486.292 703.18 485.236 702.58 483.7 702.58C482.284 702.58 481.468 703.18 481.012 703.876V702.796H478.492V714.796H481.06V707.548C481.06 705.82 481.972 704.86 483.268 704.86C484.084 704.86 484.612 705.244 484.996 705.796L487.036 704.356ZM489.252 714.796H491.82V702.796H489.252V714.796ZM489.132 700.852H491.94V698.236H489.132V700.852ZM502.763 711.628C502.283 712.372 501.707 712.804 500.291 712.804C498.395 712.804 497.675 711.34 497.675 709.468V709.42H504.851V708.1C504.851 704.548 503.291 702.58 500.003 702.58C496.859 702.58 495.131 704.428 495.131 707.956V709.588C495.131 712.78 496.955 715.012 500.387 715.012C502.499 715.012 503.843 714.436 504.683 712.972L502.763 711.628ZM500.003 704.812C501.467 704.812 502.187 705.7 502.283 707.452H497.699C497.819 705.82 498.515 704.812 500.003 704.812ZM508.051 714.796H510.619V707.548C510.619 705.94 511.507 704.86 513.091 704.86C514.411 704.86 515.371 705.46 515.371 707.572V714.796H517.915V707.284C517.915 703.828 516.019 702.58 513.547 702.58C511.963 702.58 511.099 703.156 510.571 703.876V702.796H508.051V714.796ZM528.507 711.628C528.051 712.444 527.235 712.804 526.227 712.804C524.115 712.804 523.443 711.34 523.443 709.468V708.076C523.443 706.012 524.355 704.812 526.227 704.812C527.259 704.812 528.027 705.244 528.483 705.892L530.451 704.524C529.611 703.252 528.099 702.58 526.275 702.58C522.843 702.58 520.899 704.5 520.899 707.956V709.588C520.899 712.852 522.819 715.012 526.179 715.012C528.243 715.012 529.659 714.388 530.451 712.972L528.507 711.628ZM539.845 711.628C539.365 712.372 538.789 712.804 537.373 712.804C535.477 712.804 534.757 711.34 534.757 709.468V709.42H541.933V708.1C541.933 704.548 540.373 702.58 537.085 702.58C533.941 702.58 532.213 704.428 532.213 707.956V709.588C532.213 712.78 534.037 715.012 537.469 715.012C539.581 715.012 540.925 714.436 541.765 712.972L539.845 711.628ZM537.085 704.812C538.549 704.812 539.269 705.7 539.365 707.452H534.781C534.901 705.82 535.597 704.812 537.085 704.812Z" fill="white"/>
<path d="M41.462 88.2539H128.634C130.527 88.2539 132.18 89.5402 132.662 91.3856L144.183 135.555C146.266 143.544 140.291 151.361 132.097 151.361H36.4966C28.1384 151.361 22.1341 143.247 24.5166 135.17L37.4678 91.257C37.9937 89.4746 39.6185 88.2539 41.462 88.2539Z" fill="#1D72A6"/>
<path d="M128.395 123.574H40.2754C35.6738 123.574 31.9434 127.335 31.9434 131.975V136.232C31.9434 140.872 35.6738 144.633 40.2754 144.633H128.395C132.997 144.633 136.727 140.872 136.727 136.232V131.975C136.727 127.335 132.997 123.574 128.395 123.574Z" fill="url(#paint7_linear_1_253)"/>
<path d="M41.0752 19.8887H128.247C130.14 19.8887 131.793 21.175 132.275 23.0204L143.797 67.1902C145.88 75.1783 139.904 82.9958 131.71 82.9958H36.1098C27.7517 82.9958 21.7474 74.8817 24.1299 66.8043L37.081 22.8918C37.607 21.1093 39.2318 19.8887 41.0752 19.8887Z" fill="#1D72A6"/>
<path d="M41.0754 54.1855H128.247C130.14 54.1855 131.793 55.4718 132.275 57.3173L143.797 101.487C145.88 109.475 139.904 117.293 131.71 117.293H36.11C27.7518 117.293 21.7475 109.179 24.13 101.101L37.0812 57.1886C37.6071 55.4062 39.2319 54.1855 41.0754 54.1855Z" fill="#1D72A6"/>
<path d="M128.395 55.6348H40.2754C35.6738 55.6348 31.9434 59.3957 31.9434 64.0351V68.2929C31.9434 72.9323 35.6738 76.6932 40.2754 76.6932H128.395C132.997 76.6932 136.727 72.9323 136.727 68.2929V64.0351C136.727 59.3957 132.997 55.6348 128.395 55.6348Z" fill="url(#paint8_linear_1_253)"/>
<path d="M128.395 89.5068H40.2754C35.6738 89.5068 31.9434 93.2678 31.9434 97.9071V102.165C31.9434 106.804 35.6738 110.565 40.2754 110.565H128.395C132.997 110.565 136.727 106.804 136.727 102.165V97.9071C136.727 93.2678 132.997 89.5068 128.395 89.5068Z" fill="url(#paint9_linear_1_253)"/>
<path d="M43.1446 70.0883C45.2944 70.0883 47.0372 68.3312 47.0372 66.1638C47.0372 63.9963 45.2944 62.2393 43.1446 62.2393C40.9947 62.2393 39.252 63.9963 39.252 66.1638C39.252 68.3312 40.9947 70.0883 43.1446 70.0883Z" fill="#1A4973"/>
<path d="M43.1446 103.96C45.2944 103.96 47.0372 102.203 47.0372 100.036C47.0372 97.8684 45.2944 96.1113 43.1446 96.1113C40.9947 96.1113 39.252 97.8684 39.252 100.036C39.252 102.203 40.9947 103.96 43.1446 103.96Z" fill="#1A4973"/>
<path d="M43.1446 138.029C45.2944 138.029 47.0372 136.272 47.0372 134.104C47.0372 131.937 45.2944 130.18 43.1446 130.18C40.9947 130.18 39.252 131.937 39.252 134.104C39.252 136.272 40.9947 138.029 43.1446 138.029Z" fill="#1A4973"/>
<path d="M51.6275 191.361L52.7555 187.929H58.7315L59.8595 191.361H62.8115L57.0515 174.801H54.4115L48.6515 191.361H51.6275ZM55.7315 178.833L57.9395 185.529H53.5235L55.7315 178.833ZM73.509 181.137C72.573 179.649 71.013 179.145 69.045 179.145C66.117 179.145 64.557 180.585 64.557 182.721C64.557 185.241 66.477 186.201 68.757 186.489C70.629 186.729 71.253 187.017 71.253 188.001C71.253 188.841 70.485 189.321 69.165 189.321C67.581 189.321 66.861 188.937 66.309 188.193L64.365 189.585C65.349 190.905 66.741 191.577 69.189 191.577C72.285 191.577 73.797 190.137 73.797 187.929C73.797 185.385 72.069 184.449 69.405 184.137C68.013 183.969 67.125 183.657 67.125 182.649C67.125 181.785 67.917 181.425 68.997 181.425C70.437 181.425 71.037 181.761 71.613 182.505L73.509 181.137ZM85.3852 181.137C84.4492 179.649 82.8892 179.145 80.9212 179.145C77.9932 179.145 76.4332 180.585 76.4332 182.721C76.4332 185.241 78.3532 186.201 80.6332 186.489C82.5052 186.729 83.1292 187.017 83.1292 188.001C83.1292 188.841 82.3612 189.321 81.0412 189.321C79.4572 189.321 78.7372 188.937 78.1852 188.193L76.2412 189.585C77.2252 190.905 78.6172 191.577 81.0652 191.577C84.1612 191.577 85.6732 190.137 85.6732 187.929C85.6732 185.385 83.9452 184.449 81.2812 184.137C79.8892 183.969 79.0012 183.657 79.0012 182.649C79.0012 181.785 79.7932 181.425 80.8732 181.425C82.3132 181.425 82.9132 181.761 83.4892 182.505L85.3852 181.137ZM95.8455 188.193C95.3655 188.937 94.7895 189.369 93.3735 189.369C91.4775 189.369 90.7575 187.905 90.7575 186.033V185.985H97.9335V184.665C97.9335 181.113 96.3735 179.145 93.0855 179.145C89.9415 179.145 88.2135 180.993 88.2135 184.521V186.153C88.2135 189.345 90.0375 191.577 93.4695 191.577C95.5815 191.577 96.9255 191.001 97.7655 189.537L95.8455 188.193ZM93.0855 181.377C94.5495 181.377 95.2695 182.265 95.3655 184.017H90.7815C90.9015 182.385 91.5975 181.377 93.0855 181.377ZM100.173 181.569H101.709V187.545C101.709 190.377 102.741 191.361 105.621 191.361H106.797V189.057H105.813C104.469 189.057 104.253 188.457 104.253 187.065V181.569H106.797V179.361H104.253V176.721H101.709V179.361H100.173V181.569ZM118.178 181.137C117.242 179.649 115.682 179.145 113.714 179.145C110.786 179.145 109.226 180.585 109.226 182.721C109.226 185.241 111.146 186.201 113.426 186.489C115.298 186.729 115.922 187.017 115.922 188.001C115.922 188.841 115.154 189.321 113.834 189.321C112.25 189.321 111.53 188.937 110.978 188.193L109.034 189.585C110.018 190.905 111.41 191.577 113.858 191.577C116.954 191.577 118.466 190.137 118.466 187.929C118.466 185.385 116.738 184.449 114.074 184.137C112.682 183.969 111.794 183.657 111.794 182.649C111.794 181.785 112.586 181.425 113.666 181.425C115.106 181.425 115.706 181.761 116.282 182.505L118.178 181.137Z" fill="white"/>
<path d="M89.3991 207.361L83.6018 217.348L95.1488 217.375L89.3991 207.361ZM89.1895 295.336L90.1895 295.338L90.3777 216.364L89.3777 216.361L88.3777 216.359L88.1895 295.334L89.1895 295.336Z" fill="#3C8FC2"/>
<path d="M355.875 130.18L345.875 124.406V135.953L355.875 130.18ZM214.838 130.18V131.18L346.875 131.18V130.18V129.18L214.838 129.18V130.18Z" fill="#3C8FC2"/>
<path d="M879.588 411.049L869.588 405.275V416.822L879.588 411.049ZM738.551 411.049V412.049L870.588 412.049V411.049V410.049L738.551 410.049V411.049Z" fill="#3C8FC2"/>
<path d="M355.874 354.557L345.874 348.783L345.874 360.33L355.874 354.557ZM178.445 354.557L178.445 355.557L346.874 355.557L346.874 354.557L346.874 353.557L178.445 353.557L178.445 354.557Z" fill="#3C8FC2"/>
<path d="M879.588 354.557L869.588 348.783L869.588 360.33L879.588 354.557ZM613.445 354.557L613.445 355.557L870.588 355.557L870.588 354.557L870.588 353.557L613.445 353.557L613.445 354.557Z" fill="#3C8FC2"/>
<path d="M613.445 613.237L740.546 613.237" stroke="#3C8FC2" stroke-width="2"/>
<path d="M355.874 612.248L345.874 606.475L345.874 618.022L355.874 612.248ZM215.723 612.248L215.723 613.248L346.874 613.248L346.874 612.248L346.874 611.248L215.723 611.248L215.723 612.248Z" fill="#3C8FC2"/>
<path d="M140.168 322.557H216.722" stroke="#3C8FC2" stroke-width="2"/>
<path d="M164.154 386.557H216.715" stroke="#3C8FC2" stroke-width="2"/>
<path d="M215.723 322.557L215.723 129.195" stroke="#3C8FC2" stroke-width="2"/>
<path d="M739.551 613.237L739.551 410.05" stroke="#3C8FC2" stroke-width="2"/>
<path d="M215.723 613.237L215.723 386.557" stroke="#3C8FC2" stroke-width="2"/>
<path d="M83.9082 752.055L83.9082 448.115" stroke="#3C8FC2" stroke-width="2"/>
<path d="M879.588 752.055L869.588 746.281V757.828L879.588 752.055ZM82.9355 752.055V753.055H870.588V752.055V751.055H82.9355V752.055Z" fill="#3C8FC2"/>
<rect x="912.588" y="715.796" width="196" height="63.3164" rx="23" stroke="#3C8FC2" stroke-width="2"/>
<path d="M939.154 748.614C939.154 745.182 937.33 743.238 934.45 743.238C933.082 743.238 932.122 743.67 931.522 744.414V743.454H928.954V760.014H931.522V754.686C932.122 755.334 933.034 755.67 934.426 755.67C937.618 755.67 939.154 753.366 939.154 750.246V748.614ZM934.066 753.462C932.122 753.462 931.522 751.998 931.522 750.126V748.59C931.546 746.622 932.386 745.47 934.066 745.47C935.77 745.47 936.61 746.646 936.61 748.734V750.126C936.61 751.998 935.89 753.462 934.066 753.462ZM950.663 745.014C949.919 743.838 948.863 743.238 947.327 743.238C945.911 743.238 945.095 743.838 944.639 744.534V743.454H942.119V755.454H944.687V748.206C944.687 746.478 945.599 745.518 946.895 745.518C947.711 745.518 948.239 745.902 948.623 746.454L950.663 745.014ZM962.121 748.686C962.121 745.158 960.273 743.238 957.033 743.238C953.793 743.238 951.921 745.158 951.921 748.686V750.198C951.921 753.51 953.673 755.67 957.033 755.67C960.561 755.67 962.121 753.39 962.121 750.198V748.686ZM957.033 753.462C955.089 753.462 954.465 751.998 954.465 750.126V748.734C954.465 746.67 955.305 745.47 957.033 745.47C958.737 745.47 959.577 746.646 959.577 748.734V750.126C959.577 751.998 958.857 753.462 957.033 753.462ZM975.275 748.614C975.275 745.182 973.451 743.238 970.571 743.238C969.203 743.238 968.243 743.67 967.643 744.414V743.454H965.075V760.014H967.643V754.686C968.243 755.334 969.155 755.67 970.547 755.67C973.739 755.67 975.275 753.366 975.275 750.246V748.614ZM970.187 753.462C968.243 753.462 967.643 751.998 967.643 750.126V748.59C967.667 746.622 968.507 745.47 970.187 745.47C971.891 745.47 972.731 746.646 972.731 748.734V750.126C972.731 751.998 972.011 753.462 970.187 753.462ZM986.784 745.014C986.04 743.838 984.984 743.238 983.448 743.238C982.032 743.238 981.216 743.838 980.76 744.534V743.454H978.24V755.454H980.808V748.206C980.808 746.478 981.72 745.518 983.016 745.518C983.832 745.518 984.36 745.902 984.744 746.454L986.784 745.014ZM989 755.454H991.568V743.454H989V755.454ZM988.88 741.51H991.688V738.894H988.88V741.51ZM1002.51 752.286C1002.03 753.03 1001.46 753.462 1000.04 753.462C998.143 753.462 997.423 751.998 997.423 750.126V750.078H1004.6V748.758C1004.6 745.206 1003.04 743.238 999.751 743.238C996.607 743.238 994.879 745.086 994.879 748.614V750.246C994.879 753.438 996.703 755.67 1000.14 755.67C1002.25 755.67 1003.59 755.094 1004.43 753.63L1002.51 752.286ZM999.751 745.47C1001.22 745.47 1001.94 746.358 1002.03 748.11H997.447C997.567 746.478 998.263 745.47 999.751 745.47ZM1006.84 745.662H1008.37V751.638C1008.37 754.47 1009.41 755.454 1012.29 755.454H1013.46V753.15H1012.48C1011.13 753.15 1010.92 752.55 1010.92 751.158V745.662H1013.46V743.454H1010.92V740.814H1008.37V743.454H1006.84V745.662ZM1015.7 751.926C1015.7 754.326 1017.33 755.67 1019.97 755.67C1021.44 755.67 1022.18 755.286 1022.76 754.35V755.454H1025.28V747.39C1025.28 744.198 1023.62 743.238 1020.55 743.238C1018.17 743.238 1016.88 743.814 1016.01 745.23L1017.86 746.526C1018.44 745.59 1019.08 745.446 1020.38 745.446C1022.18 745.446 1022.76 745.854 1022.76 747.366V748.374H1020.16C1017.6 748.374 1015.7 749.358 1015.7 751.926ZM1022.76 750.918C1022.76 753.006 1021.82 753.486 1020.26 753.486C1019.04 753.486 1018.22 753.03 1018.22 751.926C1018.22 750.87 1018.84 750.342 1020.36 750.342H1022.76V750.918ZM1037.28 745.014C1036.54 743.838 1035.48 743.238 1033.95 743.238C1032.53 743.238 1031.71 743.838 1031.26 744.534V743.454H1028.74V755.454H1031.31V748.206C1031.31 746.478 1032.22 745.518 1033.51 745.518C1034.33 745.518 1034.86 745.902 1035.24 746.454L1037.28 745.014ZM1037.89 743.454L1042.47 755.598C1041.87 757.398 1041.2 757.662 1039.52 757.662V760.014C1042.88 760.014 1043.77 759.006 1044.8 755.934L1049.03 743.454H1046.39L1043.65 751.902L1040.6 743.454H1037.89ZM1067.79 743.454H1065.24V750.702C1065.24 752.358 1064.38 753.414 1062.79 753.414C1061.45 753.414 1060.49 752.814 1060.49 750.678V743.454H1057.92V750.942C1057.92 754.398 1059.84 755.67 1062.31 755.67C1063.99 755.67 1064.71 755.238 1065.27 754.374V755.454H1067.79V743.454ZM1079.82 745.23C1078.88 743.742 1077.32 743.238 1075.35 743.238C1072.43 743.238 1070.87 744.678 1070.87 746.814C1070.87 749.334 1072.79 750.294 1075.07 750.582C1076.94 750.822 1077.56 751.11 1077.56 752.094C1077.56 752.934 1076.79 753.414 1075.47 753.414C1073.89 753.414 1073.17 753.03 1072.62 752.286L1070.67 753.678C1071.66 754.998 1073.05 755.67 1075.5 755.67C1078.59 755.67 1080.11 754.23 1080.11 752.022C1080.11 749.478 1078.38 748.542 1075.71 748.23C1074.32 748.062 1073.43 747.75 1073.43 746.742C1073.43 745.878 1074.23 745.518 1075.31 745.518C1076.75 745.518 1077.35 745.854 1077.92 746.598L1079.82 745.23ZM1090.28 752.286C1089.8 753.03 1089.22 753.462 1087.81 753.462C1085.91 753.462 1085.19 751.998 1085.19 750.126V750.078H1092.37V748.758C1092.37 745.206 1090.81 743.238 1087.52 743.238C1084.38 743.238 1082.65 745.086 1082.65 748.614V750.246C1082.65 753.438 1084.47 755.67 1087.9 755.67C1090.02 755.67 1091.36 755.094 1092.2 753.63L1090.28 752.286ZM1087.52 745.47C1088.98 745.47 1089.7 746.358 1089.8 748.11H1085.22C1085.34 746.478 1086.03 745.47 1087.52 745.47Z" fill="white"/>
<defs>
<linearGradient id="paint0_linear_1_253" x1="40.8934" y1="317.617" x2="317.944" y2="600.654" gradientUnits="userSpaceOnUse">
<stop stop-color="white"/>
<stop offset="1" stop-color="#0073AA"/>
</linearGradient>
<linearGradient id="paint1_linear_1_253" x1="446.51" y1="37.3677" x2="731.751" y2="91.0583" gradientUnits="userSpaceOnUse">
<stop stop-color="white"/>
<stop offset="1" stop-color="#0073AA"/>
</linearGradient>
<linearGradient id="paint2_linear_1_253" x1="434.47" y1="306.566" x2="724.714" y2="308.489" gradientUnits="userSpaceOnUse">
<stop stop-color="white"/>
<stop offset="1" stop-color="#0073AA"/>
</linearGradient>
<linearGradient id="paint3_linear_1_253" x1="930.716" y1="345.945" x2="1212.57" y2="492.54" gradientUnits="userSpaceOnUse">
<stop stop-color="white"/>
<stop offset="1" stop-color="#0073AA"/>
</linearGradient>
<linearGradient id="paint4_linear_1_253" x1="930.716" y1="308.814" x2="1212.57" y2="455.41" gradientUnits="userSpaceOnUse">
<stop stop-color="white"/>
<stop offset="1" stop-color="#0073AA"/>
</linearGradient>
<linearGradient id="paint5_linear_1_253" x1="911.588" y1="271.681" x2="1212.56" y2="418.268" gradientUnits="userSpaceOnUse">
<stop stop-color="white"/>
<stop offset="1" stop-color="#0073AA"/>
</linearGradient>
<linearGradient id="paint6_linear_1_253" x1="465.491" y1="578.419" x2="610.897" y2="605.789" gradientUnits="userSpaceOnUse">
<stop stop-color="white"/>
<stop offset="1" stop-color="#0073AA"/>
</linearGradient>
<linearGradient id="paint7_linear_1_253" x1="49.6672" y1="112.617" x2="326.459" y2="328.043" gradientUnits="userSpaceOnUse">
<stop stop-color="white"/>
<stop offset="1" stop-color="#0073AA"/>
</linearGradient>
<linearGradient id="paint8_linear_1_253" x1="49.6672" y1="44.6777" x2="326.459" y2="260.103" gradientUnits="userSpaceOnUse">
<stop stop-color="white"/>
<stop offset="1" stop-color="#0073AA"/>
</linearGradient>
<linearGradient id="paint9_linear_1_253" x1="49.6672" y1="78.5497" x2="326.459" y2="293.975" gradientUnits="userSpaceOnUse">
<stop stop-color="white"/>
<stop offset="1" stop-color="#0073AA"/>
</linearGradient>
</defs>
</svg>
