<svg width="86" height="83" viewBox="0 0 86 83" fill="none" xmlns="http://www.w3.org/2000/svg">
<g clip-path="url(#clip0_308_326)">
<path d="M42.9987 0C19.25 0 -0.000170724 19.0831 -0.000170724 42.6228C-0.011947 49.7029 1.76488 56.6731 5.16824 62.8979C8.8356 57.7969 13.3131 53.319 18.4266 49.6386C18.4266 49.6386 19.8943 48.4605 23.046 46.6114C22.432 43.5911 18.7894 22.5806 34.8273 16.1781C34.8273 16.1781 41.389 12.8189 51.0467 16.1781C53.049 16.9616 54.9004 18.0807 56.5198 19.4866C56.5198 19.4866 65.8123 25.7323 65.3796 49.8553C65.1168 64.3803 62.193 74.9859 56.8036 82.9908C65.3164 80.1283 72.7105 74.6943 77.9472 67.4522C83.1839 60.2101 86 51.5238 85.9998 42.6136C85.9975 19.0831 66.7473 0 42.9987 0Z" fill="#1A4973"/>
<path d="M61.1116 24.4549C60.5562 23.6143 59.8879 22.8526 59.1251 22.1908C58.4145 21.1672 57.56 20.2496 56.5875 19.4656C55.985 19.7515 54.815 20.3878 54.815 20.3878C54.4754 20.5631 44.5456 25.7736 42.9965 35.0765C41.4241 25.6099 31.1687 20.3763 31.1687 20.3763C31.1687 20.3763 30.0057 19.7469 29.3963 19.4541C28.4138 20.2497 27.552 21.1815 26.8376 22.2208C26.089 22.8762 25.4326 23.6284 24.8861 24.4572C19.8898 33.5457 26.8237 39.079 26.8237 39.079C26.8237 39.079 31.4083 43.7985 36.8256 42.0509C37.6621 41.779 38.4554 41.3909 39.1818 40.8981L42.9988 45.5807L46.8251 40.9073C47.5539 41.4005 48.3495 41.7886 49.1884 42.0601C54.5964 43.8077 59.1903 39.0882 59.1903 39.0882C59.1903 39.0882 66.1079 33.5434 61.1116 24.4549ZM32.3247 35.9665C28.7403 34.3134 28.6426 27.9385 28.6426 27.9385C29.8675 27.5652 31.1462 27.3954 32.4271 27.4359L31.8339 28.704C31.8339 28.704 30.2615 32.2568 33.6947 33.9607C36.807 35.5031 38.7678 31.9156 39.1074 31.2286C39.6961 32.2808 40.1218 33.4147 40.3704 34.5924C40.3704 34.5924 35.9068 37.6127 32.3247 35.9665ZM53.6683 35.9665C50.0839 37.6219 45.6179 34.6039 45.6179 34.6039C45.8666 33.4209 46.2948 32.2821 46.8879 31.2263C47.2461 31.9502 49.2 35.5054 52.2936 33.9722C55.7315 32.2684 54.1544 28.7155 54.1544 28.7155L53.5706 27.4475C54.8477 27.4028 56.1235 27.5688 57.3457 27.9385C57.3457 27.9385 57.2527 34.3088 53.6683 35.9665Z" fill="#1A4973"/>
</g>
<defs>
<clipPath id="clip0_308_326">
<rect width="86" height="83" fill="white"/>
</clipPath>
</defs>
</svg>
