<svg width="409" height="286" viewBox="0 0 409 286" fill="none" xmlns="http://www.w3.org/2000/svg">
<g clip-path="url(#clip0_2_567)">
<path d="M336.814 1.48991e-06C327.335 -0.000962849 317.947 1.87048 309.189 5.50744C300.431 9.1444 292.473 14.4756 285.769 21.1967C279.066 27.9177 273.749 35.8969 270.122 44.6786C266.494 53.4603 264.628 62.8724 264.629 72.3774V119.021C264.629 120.027 264.629 121.025 264.695 122.024C271.485 113.148 279.517 105.302 288.544 98.7278C291.463 96.5067 294.523 94.4785 297.705 92.6559C296.489 86.5988 289.262 44.4484 321.071 31.6219C321.071 31.6219 334.083 24.8893 353.239 31.6219C357.207 33.1853 360.878 35.4204 364.091 38.2297C364.091 38.2297 382.522 50.7625 381.665 99.1683C380.808 147.574 365.365 174.394 337.129 191.274L337.473 191.376C356.504 191.206 374.698 183.506 388.095 169.953C401.492 156.399 409.008 138.089 409.007 119.006V72.3774C409.008 62.8717 407.142 53.459 403.514 44.6769C399.886 35.8948 394.568 27.9152 387.864 21.1941C381.16 14.4729 373.201 9.14186 364.442 5.50533C355.683 1.8688 346.295 -0.00192726 336.814 1.48991e-06Z" fill="#0A0A0A"/>
<path d="M373.193 48.2076C372.092 46.5222 370.766 44.9956 369.253 43.6703C367.844 41.6166 366.15 39.7748 364.223 38.2005C363.029 38.7732 360.708 40.036 360.708 40.036C360.305 40.2416 340.366 50.7039 337.276 69.4994C334.156 50.5057 313.844 40.014 313.844 40.014C313.844 40.014 311.522 38.7438 310.329 38.1785C308.377 39.7648 306.665 41.6271 305.247 43.707C303.761 45.0219 302.459 46.5306 301.373 48.1929C291.466 66.4231 305.218 77.5242 305.218 77.5242C305.218 77.5242 314.312 86.988 325.032 83.4859C326.69 82.9481 328.263 82.1768 329.704 81.1952L337.298 90.5783L344.884 81.1952C346.328 82.1821 347.906 82.956 349.57 83.4932C360.298 86.9954 369.385 77.5315 369.385 77.5315C369.385 77.5315 383.1 66.4378 373.193 48.2076ZM316.077 71.2835C308.967 67.9649 308.754 55.1752 308.754 55.1752C311.185 54.4342 313.721 54.1042 316.26 54.1987L315.081 56.739C315.081 56.739 311.962 63.8681 318.742 67.2821C324.915 70.3804 328.804 63.1779 329.477 61.805C330.648 63.9139 331.493 66.189 331.981 68.5523C331.981 68.5523 323.209 74.6021 316.106 71.2835H316.077ZM358.401 71.2835C351.298 74.6021 342.438 68.5523 342.438 68.5523C342.932 66.179 343.781 63.8943 344.957 61.7756C345.689 63.244 349.541 70.3584 355.677 67.2821C362.495 63.8681 359.339 56.739 359.339 56.739L358.182 54.1987C360.716 54.1094 363.247 54.4419 365.672 55.1825C365.672 55.1825 365.541 67.9723 358.43 71.2908L358.401 71.2835Z" fill="#0A0A0A"/>
<path d="M118.764 189.871H0.0366211V151.407L66.884 78.5374C70.35 74.8175 72.7908 71.5576 74.2065 68.7579C75.6276 65.6588 76.3072 62.2698 76.191 58.8609C76.191 53.6138 74.7557 49.4533 71.8853 46.3795C69.0149 43.3056 64.9216 41.7614 59.6054 41.7467C55.2042 41.6375 50.9037 43.0765 47.45 45.8141C44.0768 48.5258 42.3877 53.1366 42.3828 59.6465H0.0366211C0.0366211 48.0559 2.69471 37.9851 8.01087 29.4342C13.1862 21.0155 20.6529 14.2549 29.5318 9.9485C38.5678 5.50415 48.6143 3.28198 59.6713 3.28198C71.1433 3.28198 81.3363 5.52617 90.2502 10.0146C98.9744 14.3294 106.255 21.1009 111.2 29.5002C116.267 38.0023 118.801 47.8821 118.801 59.1399C118.801 68.1999 117.07 75.838 113.609 82.0542C110.148 88.2704 104.239 95.7837 95.8813 104.594L51.8215 151.436H118.801L118.764 189.871Z" fill="#0A0A0A"/>
<path d="M258.339 43.2443L200.733 189.871H154.139L211.658 43.2443H172.241V72.3186H131.842V4.77222H258.332L258.339 43.2443Z" fill="#0A0A0A"/>
<path d="M53.9086 249.312V255.186C53.9379 258.171 53.7814 261.155 53.4399 264.121C53.1129 266.638 52.4068 269.092 51.3457 271.397C50.1283 273.978 48.4564 276.319 46.4103 278.305C41.7092 283.058 35.2483 285.435 27.0275 285.435H0.336914V213.226H27.0275C35.2532 213.226 41.7141 215.585 46.4103 220.304C48.4564 222.29 50.1283 224.631 51.3457 227.213C52.4068 229.518 53.1129 231.971 53.4399 234.488C53.7814 237.454 53.9379 240.438 53.9086 243.424V249.312ZM36.232 249.312C36.3064 245.393 36.1842 241.472 35.8658 237.565C35.7245 235.972 35.2047 234.436 34.3501 233.086C32.539 230.375 29.7003 229.021 25.834 229.026H18.0135V269.62H25.834C29.7003 269.62 32.539 268.267 34.3501 265.56C34.8781 264.782 35.2717 263.921 35.5144 263.012C35.8069 261.585 35.9807 260.136 36.0343 258.68C36.1661 256.629 36.232 253.507 36.232 249.312Z" fill="#0A0A0A"/>
<path d="M111.551 285.435H62.6147V213.226H111.551V229.019H80.2913V241.096H107.004V256.889H80.2913V269.613H111.551V285.435Z" fill="#0A0A0A"/>
<path d="M173.734 253.864C173.734 259.801 173.2 264.603 172.131 268.269C171.076 271.905 169.113 275.211 166.426 277.872C164.594 279.772 162.491 281.39 160.188 282.674C158.022 283.88 155.686 284.748 153.26 285.251C150.709 285.756 148.114 286.002 145.513 285.985C137.517 285.985 130.856 283.279 125.53 277.865C122.507 274.94 120.413 271.186 119.511 267.072C118.567 262.014 118.138 256.873 118.229 251.728V246.889C118.139 241.734 118.568 236.583 119.511 231.515C120.411 227.394 122.505 223.632 125.53 220.7C128.045 218.108 131.046 216.039 134.361 214.614C137.911 213.22 141.702 212.546 145.513 212.631C154.066 212.631 160.656 214.925 165.284 219.511C169.9 224.086 172.846 230.086 173.646 236.544H155.809C155.081 233.705 153.929 231.642 152.352 230.355C150.776 229.068 148.486 228.424 145.484 228.424C142.457 228.424 140.138 229.479 138.527 231.588C137.887 232.432 137.392 233.378 137.063 234.386C136.584 236.049 136.295 237.76 136.199 239.488C136.001 241.779 135.899 245.061 135.899 249.312C135.899 253.563 136.001 256.86 136.199 259.165C136.296 260.905 136.586 262.629 137.063 264.304C137.385 265.322 137.881 266.276 138.527 267.124C140.104 269.17 142.423 270.193 145.484 270.193C148.95 270.193 151.583 269.236 153.385 267.322C155.201 265.506 156.106 262.949 156.102 259.65V258.607H145.484V243.82H173.734V253.864Z" fill="#0A0A0A"/>
<path d="M239.322 285.435H218.87L206.107 258.556H200.11V285.435H182.434V213.226H210.926C216.095 213.226 220.521 214.305 224.201 216.464C227.736 218.481 230.645 221.438 232.608 225.01C234.525 228.512 235.518 232.447 235.493 236.441C235.611 240.577 234.413 244.642 232.073 248.049C229.967 251.134 227.122 253.638 223.799 255.332L239.322 285.435ZM217.838 236.5C217.847 235.24 217.531 233.998 216.923 232.895C216.301 231.766 215.375 230.835 214.25 230.208C213.002 229.513 211.591 229.164 210.164 229.195H200.11V243.747H210.193C211.62 243.78 213.03 243.433 214.279 242.741C215.399 242.118 216.325 241.195 216.952 240.076C217.556 238.972 217.862 237.729 217.838 236.471V236.5Z" fill="#0A0A0A"/>
<path d="M293.751 285.435H244.814V213.226H293.751V229.019H262.491V241.096H289.204V256.889H262.491V269.613H293.751V285.435Z" fill="#0A0A0A"/>
<path d="M351.679 285.435H302.75V213.226H351.679V229.019H320.427V241.096H347.125V256.889H320.412V269.613H351.664L351.679 285.435Z" fill="#0A0A0A"/>
<path d="M408.978 263.328C409.086 267.701 407.775 271.99 405.244 275.552C402.684 279.047 399.194 281.749 395.175 283.349C390.731 285.159 385.971 286.06 381.174 286C375.912 286.098 370.665 285.379 365.621 283.871C361.174 282.424 357.151 279.903 353.905 276.529L365.263 265.141C367.223 267.029 369.641 268.371 372.277 269.033C375.22 269.847 378.261 270.254 381.313 270.244C388.187 270.244 391.626 268.083 391.631 263.761C391.678 262.99 391.573 262.216 391.322 261.486C391.071 260.755 390.678 260.081 390.166 259.503C389.215 258.524 387.635 257.88 385.429 257.572L376.737 256.331C370.352 255.445 365.531 253.316 362.275 249.943C359.019 246.571 357.371 241.738 357.332 235.443C357.267 231.304 358.372 227.232 360.518 223.696C362.725 220.178 365.898 217.374 369.656 215.62C374.007 213.583 378.768 212.578 383.569 212.683C388.288 212.591 392.99 213.286 397.482 214.739C401.408 216.081 404.967 218.326 407.872 221.295L396.764 232.433C395.143 230.72 393.072 229.503 390.789 228.923C388.257 228.389 385.673 228.143 383.086 228.189C380.259 228.189 378.099 228.872 376.62 230.223C375.94 230.794 375.392 231.505 375.012 232.309C374.633 233.112 374.432 233.989 374.423 234.878C374.425 235.509 374.555 236.133 374.807 236.711C375.059 237.29 375.427 237.81 375.888 238.24C377.254 239.475 378.989 240.224 380.823 240.369L389.515 241.559C395.837 242.484 400.56 244.481 403.684 247.55C405.572 249.377 406.974 251.649 407.763 254.158C408.635 257.134 409.045 260.227 408.978 263.328Z" fill="#0A0A0A"/>
</g>
<defs>
<clipPath id="clip0_2_567">
<rect width="409" height="286" fill="white"/>
</clipPath>
</defs>
</svg>
